#!OML:ASF F:\VICON\USERDATA\INSTALL\rory3\rory3.ASF
:FULLY-SPECIFIED
:DEGREES
846
root 1.01225 15.2414 -5.20415 -4.96508 0.904404 1.73487
lowerback -8.28832 12.3405 8.07222
upperback -3.83038 16.0352 -6.56744
thorax 4.54226 8.11763 -8.88317
lowerneck 4.13953 -9.86638 -14.7143
upperneck 50.8793 -4.89066 -15.8215
head 19.8676 -6.32338 -6.15024
rclavicle -4.13472e-014 -1.27222e-014
rhumerus 69.9985 -5.72366 -71.7343
rradius 148.099
rwrist -64.5402
rhand 1.65692 -39.8923
rfingers 7.12502
rthumb 27.1764 -67.9553
lclavicle -4.13472e-014 -1.27222e-014
lhumerus -57.9597 -11.6993 83.0923
lradius 36.1244
lwrist 23.4158
lhand -22.797 -16.2232
lfingers 7.12502
lthumb 3.63914 13.7255
rfemur -16.9953 -36.6565 20.8742
rtibia 68.1195
rfoot -47.4624 -40.0561
rtoes 6.48007
lfemur -38.9588 -21.3272 -2.80414
ltibia 25.7554
lfoot 8.18782 -7.53041
ltoes -14.6342
847
root 1.01532 15.2419 -5.20869 -5.02834 0.793188 1.44613
lowerback -8.17973 12.3836 8.43009
upperback -3.82697 16.07 -6.47802
thorax 4.56233 8.13841 -8.98336
lowerneck 4.04036 -9.8711 -15.0106
upperneck 50.9394 -4.94312 -15.569
head 19.9849 -6.37348 -6.0111
rclavicle 5.92378e-014 -2.70347e-014
rhumerus 70.0472 -5.79641 -71.7682
rradius 148.015
rwrist -64.5903
rhand 1.43233 -39.6555
rfingers 7.12502
rthumb 26.9616 -67.7519
lclavicle 5.92378e-014 -2.70347e-014
lhumerus -57.8336 -11.511 83.0162
lradius 36.0051
lwrist 23.255
lhand -23.0211 -15.977
lfingers 7.12502
lthumb 3.42271 13.9753
rfemur -16.9483 -36.5032 21.2264
rtibia 68.038
rfoot -47.2439 -40.4527
rtoes 6.07206
lfemur -38.9128 -21.1905 -2.52704
ltibia 25.8136
lfoot 8.15316 -7.57768
ltoes -14.84
848
root 1.01738 15.2397 -5.21056 -5.10972 0.756514 1.27691
lowerback -8.1072 12.4222 8.6283
upperback -3.84729 16.1125 -6.46977
thorax 4.56075 8.16149 -9.0813
lowerneck 4.15601 -9.91541 -15.1095
upperneck 50.941 -5.08178 -15.4529
head 19.9612 -6.43753 -5.9449
rclavicle -5.52621e-014 -4.77083e-015
rhumerus 69.9792 -5.89737 -71.798
rradius 147.941
rwrist -64.4966
rhand 1.54671 -39.4447
rfingers 7.12502
rthumb 27.071 -67.5241
lclavicle -5.52621e-014 -4.77083e-015
lhumerus -57.7104 -11.4768 82.8497
lradius 35.7942
lwrist 23.0616
lhand -22.7166 -16.5433
lfingers 7.12502
lthumb 3.71673 13.4041
rfemur -16.8384 -36.3881 21.3955
rtibia 67.9906
rfoot -47.3165 -40.443
rtoes 6.15083
lfemur -38.8671 -21.1184 -2.39978
ltibia 25.8711
lfoot 8.08976 -7.65459
ltoes -15.0622
849
root 1.01806 15.2366 -5.21562 -5.12594 0.840195 1.40994
lowerback -8.12043 12.3911 8.41532
upperback -3.87683 16.088 -6.53997
thorax 4.49554 8.14529 -9.0548
lowerneck 4.30716 -9.94312 -15.1011
upperneck 50.8731 -5.18998 -15.4264
head 19.86 -6.47896 -5.91638
rclavicle -8.50798e-014 4.13472e-014
rhumerus 69.8876 -5.93228 -71.8657
rradius 147.887
rwrist -64.4358
rhand 1.64184 -39.262
rfingers 7.12502
rthumb 27.162 -67.3272
lclavicle -8.50798e-014 4.13472e-014
lhumerus -57.6582 -11.5797 82.79
lradius 35.6082
lwrist 23.0509
lhand -22.5392 -17.3874
lfingers 7.12502
lthumb 3.8881 12.5569
rfemur -16.8522 -36.4189 21.2348
rtibia 68.0391
rfoot -47.8408 -39.8992
rtoes 6.53787
lfemur -38.9016 -21.1461 -2.56895
ltibia 25.8707
lfoot 8.10952 -7.72111
ltoes -15.0388
850
root 1.02684 15.2415 -5.20708 -5.00086 0.990145 1.49612
lowerback -8.57026 12.3509 8.2753
upperback -3.80864 16.014 -6.55511
thorax 4.76322 8.11466 -8.91513
lowerneck 4.38124 -9.92522 -15.0733
upperneck 50.7644 -5.16796 -15.4982
head 19.7545 -6.47067 -5.9235
rclavicle -2.74323e-014 -9.54166e-015
rhumerus 69.8938 -5.90431 -71.9278
rradius 147.9
rwrist -64.458
rhand 1.75302 -39.001
rfingers 7.12502
rthumb 27.2684 -67.0495
lclavicle -2.74323e-014 -9.54166e-015
lhumerus -57.6895 -11.6711 82.9347
lradius 35.6954
lwrist 23.3456
lhand -22.2466 -18.1242
lfingers 7.12502
lthumb 4.1706 11.8147
rfemur -16.8812 -36.6607 21.0271
rtibia 68.0684
rfoot -48.0183 -39.504
rtoes 6.09738
lfemur -39.0062 -21.2546 -2.68331
ltibia 25.8011
lfoot 8.17177 -7.70584
ltoes -14.7905
851
root 1.03823 15.2415 -5.20979 -4.89491 1.08825 1.69965
lowerback -8.75544 12.2864 8.09394
upperback -3.77105 15.9321 -6.5933
thorax 4.84926 8.07536 -8.84138
lowerneck 4.36437 -9.88187 -15.0391
upperneck 50.7283 -5.05316 -15.6124
head 19.7334 -6.428 -5.96715
rclavicle 1.52667e-013 -3.18055e-014
rhumerus 69.9159 -5.82304 -71.9935
rradius 147.952
rwrist -64.4741
rhand 1.71114 -38.9226
rfingers 7.12502
rthumb 27.2283 -66.9774
lclavicle 1.52667e-013 -3.18055e-014
lhumerus -57.3754 -11.264 82.7368
lradius 35.1642
lwrist 23.0326
lhand -21.7963 -18.834
lfingers 7.12502
lthumb 4.6055 11.0959
rfemur -17.0136 -36.7929 20.7425
rtibia 68.1679
rfoot -48.3317 -39.0505
rtoes 6.57308
lfemur -39.0623 -21.309 -2.92831
ltibia 25.6561
lfoot 8.31023 -7.72284
ltoes -14.6019
852
root 1.04848 15.2426 -5.21442 -4.77189 1.08548 1.9906
lowerback -8.86382 12.2777 7.86665
upperback -3.76234 15.9374 -6.68654
thorax 4.88688 8.07846 -8.79916
lowerneck 4.29144 -9.86411 -14.9547
upperneck 50.7279 -4.99268 -15.6734
head 19.7433 -6.39421 -6.00846
rclavicle 8.42847e-014 4.77083e-015
rhumerus 69.9156 -5.79931 -71.9989
rradius 147.991
rwrist -64.4259
rhand 1.39115 -39.1353
rfingers 7.12502
rthumb 26.9222 -67.2377
lclavicle 8.42847e-014 4.77083e-015
lhumerus -57.2908 -11.1953 82.7077
lradius 35.0117
lwrist 22.925
lhand -20.9628 -19.2491
lfingers 7.12502
lthumb 5.41022 10.6619
rfemur -17.2096 -36.8651 20.4056
rtibia 68.2707
rfoot -48.4871 -38.726
rtoes 7.46683
lfemur -39.1154 -21.3375 -3.22971
ltibia 25.5227
lfoot 8.42041 -7.66049
ltoes -14.476
853
root 1.05391 15.2472 -5.21317 -4.70441 1.08082 2.16631
lowerback -8.99704 12.3193 7.7188
upperback -3.75953 16.0025 -6.77884
thorax 4.96541 8.11283 -8.77607
lowerneck 4.30152 -9.87138 -14.7844
upperneck 50.7334 -5.02894 -15.6693
head 19.7161 -6.37788 -6.03103
rclavicle 2.18663e-014 2.22639e-014
rhumerus 69.833 -5.85301 -71.9432
rradius 147.962
rwrist -64.2749
rhand 0.970439 -39.4038
rfingers 7.12502
rthumb 26.5196 -67.5677
lclavicle 2.18663e-014 2.22639e-014
lhumerus -57.2801 -11.4296 82.7354
lradius 34.95
lwrist 23.0893
lhand -20.3746 -18.9835
lfingers 7.12502
lthumb 5.97818 10.9122
rfemur -17.3146 -36.9661 20.1935
rtibia 68.3274
rfoot -47.997 -39.1409
rtoes 6.98778
lfemur -39.0911 -21.4238 -3.38139
ltibia 25.3533
lfoot 8.50133 -7.49882
ltoes -14.2728
854
root 1.05679 15.2492 -5.21304 -4.72243 1.0708 2.19888
lowerback -9.04727 12.3365 7.65409
upperback -3.76774 16.0286 -6.80407
thorax 4.98012 8.12514 -8.75357
lowerneck 4.43379 -9.87612 -14.7591
upperneck 50.6928 -5.10333 -15.6109
head 19.6421 -6.39732 -5.99135
rclavicle 8.62725e-014 -4.92986e-014
rhumerus 69.7839 -5.82403 -71.9524
rradius 147.834
rwrist -64.1134
rhand 0.763544 -39.4302
rfingers 7.12502
rthumb 26.3215 -67.6238
lclavicle 8.62725e-014 -4.92986e-014
lhumerus -57.352 -11.6131 82.7471
lradius 34.9632
lwrist 23.2647
lhand -20.1131 -18.6599
lfingers 7.12502
lthumb 6.23066 11.2285
rfemur -17.3187 -37.0043 20.1461
rtibia 68.349
rfoot -47.5912 -39.5822
rtoes 6.36091
lfemur -38.9748 -21.4782 -3.40336
ltibia 25.1583
lfoot 8.6009 -7.42992
ltoes -14.2894
855
root 1.06022 15.2513 -5.21858 -4.74788 1.07633 2.26786
lowerback -9.04118 12.3079 7.55431
upperback -3.72267 16 -6.79906
thorax 4.99115 8.1114 -8.70144
lowerneck 4.41929 -9.91621 -14.7935
upperneck 50.5952 -5.1588 -15.6631
head 19.5731 -6.43197 -6.00028
rclavicle 1.12512e-013 -2.54444e-014
rhumerus 69.9592 -5.71416 -72.0648
rradius 147.614
rwrist -64.0604
rhand 0.96554 -39.4014
rfingers 7.12502
rthumb 26.5149 -67.566
lclavicle 1.12512e-013 -2.54444e-014
lhumerus -57.4274 -11.6384 82.7814
lradius 35.1872
lwrist 23.4146
lhand -20.1747 -18.4482
lfingers 7.12502
lthumb 6.1712 11.4419
rfemur -17.3133 -37.0342 20.0357
rtibia 68.3788
rfoot -47.6093 -39.5277
rtoes 6.49473
lfemur -38.8689 -21.5291 -3.48595
ltibia 24.9906
lfoot 8.71778 -7.47853
ltoes -14.4339
856
root 1.06316 15.254 -5.22758 -4.71841 1.07567 2.37833
lowerback -9.02276 12.2783 7.43845
upperback -3.69303 15.9735 -6.82279
thorax 4.98385 8.09853 -8.67503
lowerneck 4.33839 -9.95998 -14.6806
upperneck 50.4864 -5.16874 -15.8439
head 19.4926 -6.43525 -6.09164
rclavicle 1.14102e-013 -7.95139e-015
rhumerus 69.7356 -5.80627 -71.9803
rradius 147.975
rwrist -64.0869
rhand 1.00961 -39.1541
rfingers 7.12502
rthumb 26.557 -67.3123
lclavicle 1.14102e-013 -7.95139e-015
lhumerus -57.5125 -11.7084 82.8914
lradius 35.5269
lwrist 23.7638
lhand -20.6471 -17.9811
lfingers 7.12502
lthumb 5.71505 11.9219
rfemur -17.3953 -37.0216 19.9297
rtibia 68.4267
rfoot -47.8063 -39.1985
rtoes 6.85809
lfemur -38.8539 -21.5741 -3.57851
ltibia 24.8792
lfoot 8.79485 -7.47302
ltoes -14.4743
